PathFileType	4	(X/Y/Z)	C:/Users/beibeiliu/ov580/test_trc\sequence.6_training_dense_left.trc
DataRate	CameraRate	NumFrames	NumMarkers	Units	OrigDataRate	OrigDataStartFrame	OrigNumFrames
120	120	20	19	mm	120	51	125
Frame#	Time	ThumbCMC			ThumbMCP			ThumbIP			ThumbTip			IndexMCP			IndexPIP			IndexTip			MiddleMCP			MiddlePIP			MiddleTip			RingMCP			RingPIP			RingTip			PinkyMCP			PinkyPIP			PinkyTip			BackHand1			BackHand2			BackHand3	
		X0	Y0	Z0	X1	Y1	Z1	X2	Y2	Z2	X3	Y3	Z3	X4	Y4	Z4	X5	Y5	Z5	X6	Y6	Z6	X7	Y7	Z7	X8	Y8	Z8	X9	Y9	Z9	X10	Y10	Z10	X11	Y11	Z11	X12	Y12	Z12	X13	Y13	Z13	X14	Y14	Z14	X15	Y15	Z15	X16	Y16	Z16	X17	Y17	Z17	X18	Y18	Z18	
50	0.416667	-142.658	78.3301	76.1988	-130.609	57.1259	52.6473	-129.258	43.4774	34.3741	-135.208	26.6753	15.2015	-151.27	91.2944	12.2747	-150.04	82.2028	-16.791	-137.585	65.2177	-29.5552	-167.446	69.1953	3.85151	-155.375	42.5207	-3.7865	-149.798	31.3658	24.8801	-178.416	53.6929	13.4722	-163.185	28.7427	22.3128	-158.9	35.4725	50.3122	-188.641	41.5837	25.9327	-173.744	27.4905	36.5593	-164.621	40.7837	57.0446	-195.134	82.9258	52.9932	-196.966	87.071	77.0751	-173.28	96.8735	64.5145	
51	0.425	-133.405	74.7662	76.5859	-122.154	51.4562	54.7241	-126.649	39.9376	33.9205	-137.646	26.0421	12.1927	-138.648	91.4456	9.94195	-134.475	83.3286	-15.5681	-129.514	60.902	-31.5821	-156.058	73.5914	3.24092	-148.126	47.6449	-6.9896	-148.261	33.0347	28.0315	-168.927	60.1437	10.9936	-159.112	34.7568	19.0217	-159.337	35.5941	45.4298	-188.234	52.4174	23.319	-170.916	34.7249	35.1456	-163.336	47.8398	53.6317	-180.875	91.2939	49.8452	-185.923	93.7699	76.4816	-156.465	101.023	63.7237	
52	0.433333	-128.703	75.3203	72.8616	-120.86	52.2335	55.4004	-121.556	38.3851	27.1692	-136.264	29.3115	11.6733	-129.198	90.8841	10.5719	-126.025	81.435	-15.2601	-125.397	54.9181	-26.8629	-148.382	75.5633	-1.40651	-144.08	49.2404	-7.80709	-142.55	35.689	23.4065	-167.31	66.9658	10.8194	-158.341	40.2326	15.9668	-157.371	40.5691	44.5467	-181.867	61.4191	21.1999	-169.553	41.6171	32.6188	-161.808	50.6951	57.0473	-168.631	97.3207	47.7998	-174.725	103.366	77.4498	-143.155	102.991	61.39	
53	0.441667	-120.67	70.0813	76.1606	-115.871	46.6697	50.7883	-119.066	33.9899	28.6976	-133.731	28.1381	13.714	-119.249	85.9451	11.4323	-116.858	74.0293	-15.2082	-117.986	51.0734	-24.9459	-136.553	73.4519	-0.212077	-141.555	44.3991	-5.25768	-144.111	34.3844	24.7167	-155.459	66.9238	8.97117	-157.871	41.7048	14.6094	-152.984	38.7976	40.8163	-173.225	66.8914	19.6332	-165.604	44.3466	29.1948	-156.996	49.3513	52.3189	-161.713	102.106	50.8909	-161.652	105.346	75.3822	-131.405	100.461	61.6751	
54	0.45	-115.349	63.1383	72.5201	-115.28	40.4013	54.461	-118.632	27.5937	31.3226	-133.169	22.7551	15.132	-111.5	78.2187	11.2128	-109.421	65.9652	-16.8535	-112.608	46.4859	-27.673	-135.375	69.9698	1.52074	-139.084	39.3483	-2.86493	-141.94	29.4987	26.98	-155.115	65.4731	10.3124	-158.324	37.3079	17.196	-152.067	36.5823	41.9709	-169.105	63.6562	18.9915	-164.824	42.7549	29.1192	-154.419	48.8763	51.093	-151.875	99.2436	48.7592	-155.082	101.319	76.5717	-124.441	92.7678	63.8149	
55	0.458333	-113.608	53.4966	74.104	-113.876	28.1729	52.7301	-121.14	19.8377	33.0247	-133.86	11.0158	12.6511	-105.356	67.3942	13.7136	-103.373	57.4621	-13.4707	-107.205	39.1391	-30.6044	-126.606	60.1285	2.62211	-135.734	30.5054	-3.26892	-144.506	22.1408	24.5261	-145.376	60.2406	11.2946	-154.962	30.2471	18.3329	-151.251	29.7334	42.9945	-164.878	61.6548	18.8763	-162.068	39.1306	26.4872	-153.688	43.6922	54.6315	-139.83	90.4631	50.0455	-140.697	94.9398	74.7147	-116.405	85.9979	66.5006	
56	0.466667	-108.214	39.7918	72.9809	-112.297	14.8502	53.6487	-119.331	4.88786	32.1972	-133.96	0.580658	14.5674	-96.9245	52.6477	12.2398	-96.0452	42.4748	-12.3348	-102.678	24.1638	-27.6308	-121.7	47.5926	0.7034	-136.799	21.2575	-2.37338	-144.56	15.3318	28.0001	-141.217	50.9315	11.2143	-153.725	23.3618	17.7716	-148.553	22.3677	44.3745	-156.236	57.3041	20.0036	-160.514	33.0002	24.855	-153.138	33.8428	52.6208	-133.799	82.7004	44.899	-134.413	88.6077	76.1054	-108.159	70.0066	62.747	
57	0.475	-112.391	29.7942	75.4016	-117.212	6.62993	55.2114	-126.528	-1.30618	31.0135	-139.706	-4.34016	15.0299	-99.2892	37.9146	8.37852	-103.86	28.6114	-15.3982	-115.411	5.79086	-24.7714	-124.8	37.4456	-0.857872	-139.613	14.3686	-6.99361	-147.511	6.78858	27.3617	-144.063	37.4801	6.56375	-155.394	14.142	14.3868	-154.136	13.0995	39.5059	-159.53	48.148	17.9196	-166.708	24.0489	27.7668	-157.656	23.8013	51.5669	-133.819	71.1489	46.1335	-128.609	75.8618	72.8202	-109.166	60.2592	62.6816	
58	0.483333	-115.124	17.372	75.0318	-125.1	-2.75828	53.5009	-132.892	-11.7272	33.728	-148.848	-11.6866	12.646	-105.434	26.9001	9.69603	-109.462	17.355	-15.7321	-127.801	-6.47483	-25.4763	-130.058	29.2268	0.189985	-149.14	3.6543	-3.98809	-154.224	-0.972188	26.9804	-148.578	33.8753	6.89671	-163.963	9.92103	14.2555	-161.062	8.13268	38.6341	-164.218	42.4512	16.0454	-170.48	19.9961	24.4575	-160.214	21.1126	50.8449	-130.857	60.3525	42.3305	-131.672	68.6931	71.537	-111.584	50.3765	58.8441	
59	0.491667	-118.502	13.4118	74.3401	-130.599	-6.28086	52.1092	-139.899	-13.5119	31.6966	-155.409	-9.93404	12.3335	-103.638	18.5979	4.72174	-107.326	5.97244	-18.7183	-122.686	-6.10871	-30.3176	-131.838	24.4994	-4.34598	-149.721	3.04959	-8.1945	-160.762	1.36429	23.1534	-150.809	30.2715	3.5578	-164.813	8.981	14.7433	-162.808	12.5335	43.0498	-162.267	43.9905	15.6136	-172.956	21.1415	27.2408	-162.018	22.9256	46.2812	-132.353	62.8651	43.4776	-129.527	68.4074	68.1223	-108.446	43.539	58.2571	
60	0.5	-118.532	14.4064	71.823	-132.194	-3.33318	49.9151	-143.339	-11.4802	24.9478	-155.824	-5.48194	9.24654	-103.887	20.0159	8.23483	-104.281	11.2483	-17.9251	-118.179	-3.92049	-39.1691	-126.165	24.1192	-4.58188	-149.171	8.72333	-10.323	-158.969	2.43361	23.568	-147.202	35.3301	2.00429	-166.532	17.5281	12.5423	-161.414	17.0645	38.135	-157.004	47.2721	12.464	-171.659	29.6183	22.3677	-162.872	27.5269	46.572	-124.522	61.4159	37.9499	-123.428	67.8376	68.6492	-109.925	46.7186	55.9847	
61	0.508333	-118.833	15.4105	69.0449	-134.47	-2.15054	48.055	-144.939	-7.97271	26.581	-158.785	-2.20088	4.35985	-102.586	23.2337	6.3788	-103.276	13.1698	-20.3794	-115.17	-3.2392	-38.1132	-125.7	27.7003	-6.58918	-151.392	14.3623	-9.07984	-159.641	11.1501	21.5425	-144.984	43.585	2.01041	-163.634	24.2357	11.2861	-160.56	28.5023	39.6108	-156.111	54.9652	9.61222	-168.338	36.3603	22.1439	-156.648	35.5406	43.761	-120.37	65.3417	36.87	-118.588	69.3595	64.8452	-101.873	44.4486	58.381	
62	0.516667	-117.372	19.3259	70.2679	-133.433	2.74691	45.3113	-143.364	-0.606625	28.0822	-156.161	6.07567	4.6208	-98.865	23.6757	3.72578	-103.094	14.2633	-19.8676	-128.274	1.59586	-32.6341	-121.689	33.0296	-5.00667	-148.672	17.8168	-9.06276	-159.959	19.9307	19.9605	-141.337	47.2039	1.20056	-159.707	30.4598	9.72864	-155.597	34.354	39.9297	-148.589	61.1542	10.4934	-164.774	44.4816	21.3999	-154.204	42.1525	46.6657	-111.667	68.0624	42.6439	-111.338	70.2948	67.0469	-99.7302	46.8948	57.3004	
63	0.525	-114.322	21.517	70.4594	-130.44	4.89981	48.6554	-140.157	2.1495	28.0959	-152.723	9.50328	6.92535	-97.6115	23.104	5.54175	-108.992	13.3288	-19.6533	-136.012	2.36213	-20.4433	-119.131	35.346	-5.33731	-143.674	22.8083	-10.0136	-154.239	20.0567	21.1349	-132.712	50.3938	3.98422	-155.645	34.3608	11.3785	-153.681	37.1559	38.4315	-139.002	63.8953	12.4605	-160.09	49.6664	20.8144	-147.778	42.5162	44.7747	-105.59	66.6739	42.8933	-104.642	76.5706	69.0461	-92.822	45.8312	56.6981	
64	0.533333	-109.824	22.4856	70.4919	-127.668	4.18133	52.8465	-137.234	-0.696273	25.4083	-148.189	9.40648	9.28326	-93.4004	22.6552	5.23517	-107.03	12.3817	-18.2027	-130.378	1.84075	-16.8012	-111.928	32.5852	-2.99357	-141.361	23.2142	-6.97986	-150.706	22.6289	23.5518	-129.536	50.6246	2.68063	-151.543	36.1482	10.7155	-147.74	35.5689	39.5274	-134.382	61.6334	13.8983	-154.355	48.1584	21.6981	-148.698	45.3668	46.7142	-100.642	67.4447	44.1114	-100.293	72.2296	70.3993	-90.8247	43.7987	59.975	
65	0.541667	-106.644	20.2129	71.1122	-121.834	3.0993	46.4915	-132.09	-0.374732	29.8794	-142.865	6.57426	7.41941	-86.5201	25.4161	11.9998	-95.4241	19.2528	-17.719	-120.584	6.05771	-25.4385	-107.101	33.3987	-2.21205	-135.76	24.7693	-8.03563	-148.105	23.0179	19.2806	-124.589	45.4782	4.80565	-146.985	32.815	12.9985	-145.846	34.7885	39.8376	-134.247	58.8458	13.8559	-152.514	47.928	23.2662	-141.337	39.4861	46.5588	-100.4	67.4195	48.1768	-98.5715	74.1523	69.7588	-87.7213	47.7573	62.0469	
66	0.55	-102.821	20.5256	68.9604	-115.719	2.0712	46.6146	-125.616	0.402689	23.4303	-139.075	5.80911	2.37177	-81.5434	34.9719	12.1126	-82.6051	33.3624	-17.6548	-99.483	20.4777	-36.8923	-106.04	42.4661	-3.96786	-126.876	25.7053	-12.92	-141.751	20.7309	19.3346	-124.901	50.6723	4.19843	-146.426	34.816	10.0441	-143.835	30.5642	35.9638	-134.101	65.1306	15.1137	-148.687	44.9964	20.942	-143.716	41.9604	46.2277	-101.578	71.6715	49.2696	-104.361	75.1547	71.7611	-87.1227	52.2627	62.9537	
67	0.558333	-99.2003	21.8851	67.5051	-111.952	4.67864	44.5647	-120.281	0.261494	19.6353	-134.613	11.6021	0.926894	-82.1586	44.9525	11.212	-79.8577	43.5133	-15.9269	-90.2588	32.5183	-38.6554	-105.856	48.308	-1.95881	-127.064	29.6464	-11.9303	-138.955	21.3543	15.8257	-124.581	53.4994	4.46926	-142.978	32.4145	11.1746	-139.655	29.9824	36.9598	-139.082	62.0588	13.613	-149.722	42.1815	22.9721	-137.51	40.7601	46.4309	-105.287	75.9311	49.4825	-108.07	74.772	72.4435	-89.2218	55.705	62.6124	
68	0.566667	-99.1112	23.6515	68.6329	-107.937	5.23549	43.0913	-114.866	4.80257	21.7979	-129.751	10.1038	-0.797201	-80.7208	50.2255	9.38518	-82.1952	49.5105	-20.1097	-96.1696	37.7918	-36.5085	-104.962	53.001	-2.63605	-123.741	34.4734	-14.0067	-132.92	20.0353	13.4072	-122.895	55.1032	5.27459	-140.391	32.7761	7.72257	-142.133	29.5719	33.8905	-141.523	64.078	13.5438	-147.802	39.7182	20.0121	-136.651	37.4739	42.353	-109.397	76.0227	47.3515	-113.375	78.7765	74.5604	-93.5714	59.0572	62.1003	
69	0.575	-99.1368	33.4031	67.3363	-101.121	15.8364	37.8998	-105.767	12.6062	15.0778	-120.439	16.767	-4.71625	-77.5571	61.9363	9.53709	-82.2555	62.285	-19.3778	-95.1825	46.6251	-34.712	-104.825	62.167	-5.71208	-119.625	42.7736	-16.8193	-126.69	26.9473	13.1438	-126.18	62.8994	2.9305	-138.323	39.194	2.13714	-135.517	31.7128	29.5779	-141.588	67.1693	10.4163	-144.695	42.611	15.2012	-138.951	38.7725	38.5113	-115.688	83.755	51.4078	-121.487	81.0422	78.2092	-96.3937	66.4835	63.5825	
